<svg width="40" height="40" viewBox="0 0 40 40" fill="none" xmlns="http://www.w3.org/2000/svg">
<path d="M20.2 29H2.8C2.35817 29 2 28.6418 2 28.2V7.3C2 6.85817 2.35817 6.5 2.8 6.5H16.5L21 11V28.2C21 28.6418 20.6418 29 20.2 29Z" fill="url(#paint0_linear_72_947)"/>
<path d="M15.1404 21.0992C14.3687 21.0388 13.6256 20.7367 13.0254 20.193C11.8536 20.4648 10.7389 20.8575 9.62426 21.3409C8.73824 23.0024 7.90939 23.8482 7.19487 23.8482C7.05196 23.8482 6.88048 23.818 6.76615 23.7274C6.45176 23.5763 6.28027 23.244 6.28027 22.9117C6.28027 22.6399 6.33744 21.8846 9.05263 20.6461C9.68142 19.4377 10.1673 18.1992 10.5674 16.9002C10.2245 16.1752 9.48135 14.3929 9.99581 13.4866C10.1673 13.1543 10.5103 12.9731 10.8818 13.0033C11.1676 13.0033 11.4534 13.1543 11.6249 13.396C11.9965 13.9397 11.9679 15.0877 11.482 16.7794C11.9393 17.6856 12.5395 18.5013 13.254 19.1961C13.8543 19.0752 14.4545 18.9846 15.0547 18.9846C16.398 19.0148 16.598 19.6794 16.5695 20.0721C16.5695 21.0992 15.6263 21.0992 15.1404 21.0992ZM7.1377 22.9722L7.22345 22.942C7.62358 22.7909 7.93797 22.4888 8.16662 22.0961C7.73791 22.2774 7.39493 22.5794 7.1377 22.9722ZM10.939 13.9095H10.8532C10.8247 13.9095 10.7675 13.9095 10.7389 13.9397C10.6246 14.4533 10.7103 14.997 10.9104 15.4804C11.0819 14.9668 11.0819 14.4231 10.939 13.9095ZM11.1391 18.2898L11.1105 18.3502L11.0819 18.32C10.8247 19.0148 10.5388 19.7096 10.2245 20.3742L10.2816 20.344V20.4044C10.9104 20.1627 11.5963 19.9513 12.2251 19.8002L12.1965 19.77H12.2823C11.8536 19.3169 11.4534 18.8033 11.1391 18.2898ZM15.0261 19.8909C14.7688 19.8909 14.5402 19.8909 14.283 19.9513C14.5688 20.1023 14.8546 20.1627 15.1404 20.193C15.3405 20.2232 15.5405 20.193 15.712 20.1325C15.712 20.0419 15.5977 19.8909 15.0261 19.8909Z" fill="white"/>
<path d="M16.5 10.2V6.5L21 11H17.3C16.8582 11 16.5 10.6418 16.5 10.2Z" fill="#EC685F"/>
<path d="M37.2 38H19.8C19.3582 38 19 37.6418 19 37.2V16.3C19 15.8582 19.3582 15.5 19.8 15.5H33.5L38 20V37.2C38 37.6418 37.6418 38 37.2 38Z" fill="url(#paint1_linear_72_947)"/>
<path d="M24.8926 31.5L27.9026 27.35V28.53L25.0226 24.5H26.8626L28.8526 27.31L28.0826 27.32L30.0426 24.5H31.8026L28.9426 28.46V27.3L31.9726 31.5H30.1026L28.0426 28.53H28.7826L26.7526 31.5H24.8926Z" fill="white"/>
<path d="M33.5 19.2V15.5L38 20H34.3C33.8582 20 33.5 19.6418 33.5 19.2Z" fill="#1F9568"/>
<path d="M23.1172 2C27.2057 2.49062 32.9297 5.10729 34.8922 10.9948L36.2005 7.56041" stroke="white" stroke-linecap="round" stroke-linejoin="round"/>
<defs>
<linearGradient id="paint0_linear_72_947" x1="11.8958" y1="6.5" x2="11.8958" y2="29" gradientUnits="userSpaceOnUse">
<stop stop-color="#FF8C84"/>
<stop offset="1" stop-color="#FB736A"/>
</linearGradient>
<linearGradient id="paint1_linear_72_947" x1="28.5" y1="38" x2="28.5" y2="15.5" gradientUnits="userSpaceOnUse">
<stop stop-color="#2A936D"/>
<stop offset="1" stop-color="#48BD85"/>
</linearGradient>
</defs>
</svg>
